<svg version="1.1" xmlns="http://www.w3.org/2000/svg" xmlns:xlink="http://www.w3.org/1999/xlink" x="0px" y="0px" width="250" height="250" viewBox="0 0 200 320" xml:space="preserve">

	<g id="svg-content">
		<g transform="matrix(0.70,0,0,0.70,30,40)">

<g id="XMLID_6_">
	<linearGradient id="XMLID_7_" gradientUnits="userSpaceOnUse" x1="35.1953" y1="138.6351" x2="168.0753" y2="138.6351">
		<stop  offset="0" style="stop-color:#036EB7"/>
		<stop  offset="1" style="stop-color:#7EC3DC"/>
	</linearGradient>
	<path id="XMLID_4_" fill="url(#XMLID_7_)" d="M96.1,174.8C57.6,151.4,68,114.7,68,114.7l0,0c0.9-12.4,6.8-35.2,38.8-35.5
		c0,0,0.3,0,0.8,0.1l0,0c0,0-54.8-9.4-70.2,46.8c0,0-16.9,43.8,44.4,71.1c24,4.1,59.1,0.6,86.4-29.2
		C126.8,195.7,96.1,174.8,96.1,174.8z"/>
	<linearGradient id="XMLID_8_" gradientUnits="userSpaceOnUse" x1="12.0401" y1="121.5352" x2="144.4455" y2="121.5352">
		<stop  offset="0" style="stop-color:#80CCE8"/>
		<stop  offset="1" style="stop-color:#2394BA"/>
	</linearGradient>
	<path id="XMLID_3_" fill="url(#XMLID_8_)" d="M37.3,126.1c15.5-56.2,70.2-46.8,70.2-46.8l0,0c28.1,3.5-9.8,29.5,26.5,33.9
		c11.6,1.4,14.6-22.1,3.3-39.7c-12.7-19.8-44.4-37.7-81.5-21.1c-41.3,18.6-74.7,93.4,3,136.9c4.8,2.7,12.8,6,22.8,7.8
		C20.4,169.9,37.3,126.1,37.3,126.1z"/>
	<linearGradient id="XMLID_9_" gradientUnits="userSpaceOnUse" x1="114.3819" y1="37.4452" x2="173.9815" y2="37.4452">
		<stop  offset="0" style="stop-color:#80CCE8"/>
		<stop  offset="1" style="stop-color:#2394BA"/>
	</linearGradient>
	<path id="XMLID_2_" fill="url(#XMLID_9_)" d="M173.2,69.9c-14.4-20.6-26.5-44.1,0.8-35.1L114.4,5l56.3,64.9H173.2z"/>
	<linearGradient id="XMLID_10_" gradientUnits="userSpaceOnUse" x1="66.7189" y1="114.3733" x2="187.9599" y2="114.3733">
		<stop  offset="0" style="stop-color:#036EB7"/>
		<stop  offset="1" style="stop-color:#7EC3DC"/>
	</linearGradient>
	<path id="XMLID_1_" fill="url(#XMLID_10_)" d="M150.3,46.4c0,0,50.8,70.3-19.7,102.8c0,0-51.4,15.9-62.6-26.7c0,0-0.4-3.2-0.1-7.8
		l0,0c0,0-10.4,36.7,28.1,60.1c0,0,30.7,21,72-6.8c3.4-3.7,6.7-7.8,9.8-12.4C177.9,155.5,213.7,95.9,150.3,46.4z"/>
</g>

		</g>
	</g>
</svg>
